<?xml version="1.0" encoding="utf-8" standalone="no"?>
<!DOCTYPE svg PUBLIC "-//W3C//DTD SVG 1.1//EN"
  "http://www.w3.org/Graphics/SVG/1.1/DTD/svg11.dtd">
<svg xmlns:xlink="http://www.w3.org/1999/xlink" width="1035.888828pt" height="640.1952pt" viewBox="0 0 1035.888828 640.1952" xmlns="http://www.w3.org/2000/svg" version="1.1">
 <metadata>
  <rdf:RDF xmlns:dc="http://purl.org/dc/elements/1.1/" xmlns:cc="http://creativecommons.org/ns#" xmlns:rdf="http://www.w3.org/1999/02/22-rdf-syntax-ns#">
   <cc:Work>
    <dc:type rdf:resource="http://purl.org/dc/dcmitype/StillImage"/>
    <dc:date>2026-09-24T00:33:02.487207</dc:date>
    <dc:format>image/svg+xml</dc:format>
    <dc:creator>
     <cc:Agent>
      <dc:title>Matplotlib v3.11.2, https://matplotlib.org/</dc:title>
     </cc:Agent>
    </dc:creator>
   </cc:Work>
  </rdf:RDF>
 </metadata>
 <defs>
  <style type="text/css">*{stroke-linejoin: round; stroke-linecap: butt}</style>
 </defs>
 <g id="figure_1">
  <g id="patch_1">
   <path d="M 0 640.1952
L 1035.888828 640.1952
L 1035.888828 0
L 0 0
z
" style="fill: #f7f9fc"/>
  </g>
  <g id="axes_1">
   <g id="patch_2">
    <path d="M 76.848828 534.384
L 1021.488828 534.384
L 1021.488828 103.824
L 76.848828 103.824
z
" style="fill: #ffffff"/>
   </g>
   <g id="matplotlib.axis_1">
    <g id="xtick_1">
     <g id="line2d_1">
      <path d="M 122.621365 534.384
L 122.621365 103.824
" clip-path="url(#pfdaf1e777c)" style="fill: none; stroke: #dde4ee; stroke-opacity: 0.75; stroke-width: 0.7; stroke-linecap: square"/>
     </g>
     <g id="line2d_2"/>
     <g id="text_1">
      <text style="font-size: 11px; font-family: 'DejaVu Sans'; text-anchor: middle; fill: #66758b" x="122.621365" y="550.742281" transform="rotate(-0 122.621365 550.742281)">$0.01</text>
     </g>
    </g>
    <g id="xtick_2">
     <g id="line2d_3">
      <path d="M 264.803853 534.384
L 264.803853 103.824
" clip-path="url(#pfdaf1e777c)" style="fill: none; stroke: #dde4ee; stroke-opacity: 0.75; stroke-width: 0.7; stroke-linecap: square"/>
     </g>
     <g id="line2d_4"/>
     <g id="text_2">
      <text style="font-size: 11px; font-family: 'DejaVu Sans'; text-anchor: middle; fill: #66758b" x="264.803853" y="550.742281" transform="rotate(-0 264.803853 550.742281)">$0.02</text>
     </g>
    </g>
    <g id="xtick_3">
     <g id="line2d_5">
      <path d="M 452.758878 534.384
L 452.758878 103.824
" clip-path="url(#pfdaf1e777c)" style="fill: none; stroke: #dde4ee; stroke-opacity: 0.75; stroke-width: 0.7; stroke-linecap: square"/>
     </g>
     <g id="line2d_6"/>
     <g id="text_3">
      <text style="font-size: 11px; font-family: 'DejaVu Sans'; text-anchor: middle; fill: #66758b" x="452.758878" y="550.742281" transform="rotate(-0 452.758878 550.742281)">$0.05</text>
     </g>
    </g>
    <g id="xtick_4">
     <g id="line2d_7">
      <path d="M 594.941365 534.384
L 594.941365 103.824
" clip-path="url(#pfdaf1e777c)" style="fill: none; stroke: #dde4ee; stroke-opacity: 0.75; stroke-width: 0.7; stroke-linecap: square"/>
     </g>
     <g id="line2d_8"/>
     <g id="text_4">
      <text style="font-size: 11px; font-family: 'DejaVu Sans'; text-anchor: middle; fill: #66758b" x="594.941365" y="550.742281" transform="rotate(-0 594.941365 550.742281)">$0.10</text>
     </g>
    </g>
    <g id="xtick_5">
     <g id="line2d_9">
      <path d="M 737.123853 534.384
L 737.123853 103.824
" clip-path="url(#pfdaf1e777c)" style="fill: none; stroke: #dde4ee; stroke-opacity: 0.75; stroke-width: 0.7; stroke-linecap: square"/>
     </g>
     <g id="line2d_10"/>
     <g id="text_5">
      <text style="font-size: 11px; font-family: 'DejaVu Sans'; text-anchor: middle; fill: #66758b" x="737.123853" y="550.742281" transform="rotate(-0 737.123853 550.742281)">$0.20</text>
     </g>
    </g>
    <g id="xtick_6">
     <g id="line2d_11">
      <path d="M 925.078878 534.384
L 925.078878 103.824
" clip-path="url(#pfdaf1e777c)" style="fill: none; stroke: #dde4ee; stroke-opacity: 0.75; stroke-width: 0.7; stroke-linecap: square"/>
     </g>
     <g id="line2d_12"/>
     <g id="text_6">
      <text style="font-size: 11px; font-family: 'DejaVu Sans'; text-anchor: middle; fill: #66758b" x="925.078878" y="550.742281" transform="rotate(-0 925.078878 550.742281)">$0.50</text>
     </g>
    </g>
    <g id="xtick_7">
     <g id="line2d_13">
      <defs>
       <path id="m41f36bfd83" d="M 0 0
L 0 2
" style="stroke: #66758b; stroke-width: 0.6"/>
      </defs>
      <g>
       <use xlink:href="#m41f36bfd83" x="76.848828" y="534.384" style="fill: #66758b; stroke: #66758b; stroke-width: 0.6"/>
      </g>
     </g>
    </g>
    <g id="xtick_8">
     <g id="line2d_14">
      <g>
       <use xlink:href="#m41f36bfd83" x="101.009188" y="534.384" style="fill: #66758b; stroke: #66758b; stroke-width: 0.6"/>
      </g>
     </g>
    </g>
    <g id="xtick_9">
     <g id="line2d_15">
      <g>
       <use xlink:href="#m41f36bfd83" x="347.975276" y="534.384" style="fill: #66758b; stroke: #66758b; stroke-width: 0.6"/>
      </g>
     </g>
    </g>
    <g id="xtick_10">
     <g id="line2d_16">
      <g>
       <use xlink:href="#m41f36bfd83" x="406.986341" y="534.384" style="fill: #66758b; stroke: #66758b; stroke-width: 0.6"/>
      </g>
     </g>
    </g>
    <g id="xtick_11">
     <g id="line2d_17">
      <g>
       <use xlink:href="#m41f36bfd83" x="490.157764" y="534.384" style="fill: #66758b; stroke: #66758b; stroke-width: 0.6"/>
      </g>
     </g>
    </g>
    <g id="xtick_12">
     <g id="line2d_18">
      <g>
       <use xlink:href="#m41f36bfd83" x="521.778072" y="534.384" style="fill: #66758b; stroke: #66758b; stroke-width: 0.6"/>
      </g>
     </g>
    </g>
    <g id="xtick_13">
     <g id="line2d_19">
      <g>
       <use xlink:href="#m41f36bfd83" x="549.168828" y="534.384" style="fill: #66758b; stroke: #66758b; stroke-width: 0.6"/>
      </g>
     </g>
    </g>
    <g id="xtick_14">
     <g id="line2d_20">
      <g>
       <use xlink:href="#m41f36bfd83" x="573.329188" y="534.384" style="fill: #66758b; stroke: #66758b; stroke-width: 0.6"/>
      </g>
     </g>
    </g>
    <g id="xtick_15">
     <g id="line2d_21">
      <g>
       <use xlink:href="#m41f36bfd83" x="820.295276" y="534.384" style="fill: #66758b; stroke: #66758b; stroke-width: 0.6"/>
      </g>
     </g>
    </g>
    <g id="xtick_16">
     <g id="line2d_22">
      <g>
       <use xlink:href="#m41f36bfd83" x="879.306341" y="534.384" style="fill: #66758b; stroke: #66758b; stroke-width: 0.6"/>
      </g>
     </g>
    </g>
    <g id="xtick_17">
     <g id="line2d_23">
      <g>
       <use xlink:href="#m41f36bfd83" x="962.477764" y="534.384" style="fill: #66758b; stroke: #66758b; stroke-width: 0.6"/>
      </g>
     </g>
    </g>
    <g id="xtick_18">
     <g id="line2d_24">
      <g>
       <use xlink:href="#m41f36bfd83" x="994.098072" y="534.384" style="fill: #66758b; stroke: #66758b; stroke-width: 0.6"/>
      </g>
     </g>
    </g>
    <g id="xtick_19">
     <g id="line2d_25">
      <g>
       <use xlink:href="#m41f36bfd83" x="1021.488828" y="534.384" style="fill: #66758b; stroke: #66758b; stroke-width: 0.6"/>
      </g>
     </g>
    </g>
    <g id="text_7">
     <text style="font-size: 11px; font-family: 'DejaVu Sans'; text-anchor: middle; fill: #66758b" x="549.168828" y="572.743141" transform="rotate(-0 549.168828 572.743141)">Reported USD per 1,000 valid checks (log scale)</text>
    </g>
   </g>
   <g id="matplotlib.axis_2">
    <g id="ytick_1">
     <g id="line2d_26">
      <path d="M 76.848828 505.193492
L 1021.488828 505.193492
" clip-path="url(#pfdaf1e777c)" style="fill: none; stroke: #dde4ee; stroke-opacity: 0.75; stroke-width: 0.7; stroke-linecap: square"/>
     </g>
     <g id="line2d_27"/>
     <g id="text_8">
      <text style="font-size: 11px; font-family: 'DejaVu Sans'; text-anchor: end; fill: #172235" x="68.848828" y="509.372202" transform="rotate(-0 68.848828 509.372202)">50%</text>
     </g>
    </g>
    <g id="ytick_2">
     <g id="line2d_28">
      <path d="M 76.848828 432.21722
L 1021.488828 432.21722
" clip-path="url(#pfdaf1e777c)" style="fill: none; stroke: #dde4ee; stroke-opacity: 0.75; stroke-width: 0.7; stroke-linecap: square"/>
     </g>
     <g id="line2d_29"/>
     <g id="text_9">
      <text style="font-size: 11px; font-family: 'DejaVu Sans'; text-anchor: end; fill: #172235" x="68.848828" y="436.395931" transform="rotate(-0 68.848828 436.395931)">60%</text>
     </g>
    </g>
    <g id="ytick_3">
     <g id="line2d_30">
      <path d="M 76.848828 359.240949
L 1021.488828 359.240949
" clip-path="url(#pfdaf1e777c)" style="fill: none; stroke: #dde4ee; stroke-opacity: 0.75; stroke-width: 0.7; stroke-linecap: square"/>
     </g>
     <g id="line2d_31"/>
     <g id="text_10">
      <text style="font-size: 11px; font-family: 'DejaVu Sans'; text-anchor: end; fill: #172235" x="68.848828" y="363.41966" transform="rotate(-0 68.848828 363.41966)">70%</text>
     </g>
    </g>
    <g id="ytick_4">
     <g id="line2d_32">
      <path d="M 76.848828 286.264678
L 1021.488828 286.264678
" clip-path="url(#pfdaf1e777c)" style="fill: none; stroke: #dde4ee; stroke-opacity: 0.75; stroke-width: 0.7; stroke-linecap: square"/>
     </g>
     <g id="line2d_33"/>
     <g id="text_11">
      <text style="font-size: 11px; font-family: 'DejaVu Sans'; text-anchor: end; fill: #172235" x="68.848828" y="290.443389" transform="rotate(-0 68.848828 290.443389)">80%</text>
     </g>
    </g>
    <g id="ytick_5">
     <g id="line2d_34">
      <path d="M 76.848828 213.288407
L 1021.488828 213.288407
" clip-path="url(#pfdaf1e777c)" style="fill: none; stroke: #dde4ee; stroke-opacity: 0.75; stroke-width: 0.7; stroke-linecap: square"/>
     </g>
     <g id="line2d_35"/>
     <g id="text_12">
      <text style="font-size: 11px; font-family: 'DejaVu Sans'; text-anchor: end; fill: #172235" x="68.848828" y="217.467118" transform="rotate(-0 68.848828 217.467118)">90%</text>
     </g>
    </g>
    <g id="ytick_6">
     <g id="line2d_36">
      <path d="M 76.848828 140.312136
L 1021.488828 140.312136
" clip-path="url(#pfdaf1e777c)" style="fill: none; stroke: #dde4ee; stroke-opacity: 0.75; stroke-width: 0.7; stroke-linecap: square"/>
     </g>
     <g id="line2d_37"/>
     <g id="text_13">
      <text style="font-size: 11px; font-family: 'DejaVu Sans'; text-anchor: end; fill: #172235" x="68.848828" y="144.490847" transform="rotate(-0 68.848828 144.490847)">100%</text>
     </g>
    </g>
    <g id="text_14">
     <text style="font-size: 11px; font-family: 'DejaVu Sans'; text-anchor: middle; fill: #66758b" x="22.758281" y="319.104" transform="rotate(-90 22.758281 319.104)">Balanced accuracy</text>
    </g>
   </g>
   <g id="PathCollection_1">
    <defs>
     <path id="m8f5d8390db" d="M 0 5.361903
C 1.421993 5.361903 2.785937 4.796939 3.791438 3.791438
C 4.796939 2.785937 5.361903 1.421993 5.361903 0
C 5.361903 -1.421993 4.796939 -2.785937 3.791438 -3.791438
C 2.785937 -4.796939 1.421993 -5.361903 0 -5.361903
C -1.421993 -5.361903 -2.785937 -4.796939 -3.791438 -3.791438
C -4.796939 -2.785937 -5.361903 -1.421993 -5.361903 0
C -5.361903 1.421993 -4.796939 2.785937 -3.791438 3.791438
C -2.785937 4.796939 -1.421993 5.361903 0 5.361903
z
" style="stroke: #172235; stroke-width: 1.3"/>
    </defs>
    <g clip-path="url(#pfdaf1e777c)">
     <use xlink:href="#m8f5d8390db" x="236.685662" y="152.474847" style="fill: #255ed2; stroke: #172235; stroke-width: 1.3"/>
    </g>
   </g>
   <g id="PathCollection_2">
    <defs>
     <path id="m5feb4c81cc" d="M 0 4.242641
C 1.125161 4.242641 2.204391 3.795609 3 3
C 3.795609 2.204391 4.242641 1.125161 4.242641 0
C 4.242641 -1.125161 3.795609 -2.204391 3 -3
C 2.204391 -3.795609 1.125161 -4.242641 0 -4.242641
C -1.125161 -4.242641 -2.204391 -3.795609 -3 -3
C -3.795609 -2.204391 -4.242641 -1.125161 -4.242641 0
C -4.242641 1.125161 -3.795609 2.204391 -3 3
C -2.204391 3.795609 -1.125161 4.242641 0 4.242641
z
" style="stroke: #ffffff; stroke-width: 1.3"/>
    </defs>
    <g clip-path="url(#pfdaf1e777c)">
     <use xlink:href="#m5feb4c81cc" x="127.511279" y="188.962983" style="fill: #8d9aad; stroke: #ffffff; stroke-width: 1.3"/>
    </g>
   </g>
   <g id="PathCollection_3">
    <g clip-path="url(#pfdaf1e777c)">
     <use xlink:href="#m5feb4c81cc" x="166.503323" y="493.03078" style="fill: #8d9aad; stroke: #ffffff; stroke-width: 1.3"/>
    </g>
   </g>
   <g id="PathCollection_4">
    <g clip-path="url(#pfdaf1e777c)">
     <use xlink:href="#m5feb4c81cc" x="179.353171" y="353.159593" style="fill: #8d9aad; stroke: #ffffff; stroke-width: 1.3"/>
    </g>
   </g>
   <g id="PathCollection_5">
    <g clip-path="url(#pfdaf1e777c)">
     <use xlink:href="#m5feb4c81cc" x="213.746739" y="243.695186" style="fill: #8d9aad; stroke: #ffffff; stroke-width: 1.3"/>
    </g>
   </g>
   <g id="PathCollection_6">
    <g clip-path="url(#pfdaf1e777c)">
     <use xlink:href="#m5feb4c81cc" x="355.081444" y="176.800271" style="fill: #8d9aad; stroke: #ffffff; stroke-width: 1.3"/>
    </g>
   </g>
   <g id="PathCollection_7">
    <g clip-path="url(#pfdaf1e777c)">
     <use xlink:href="#m5feb4c81cc" x="266.87031" y="493.03078" style="fill: #8d9aad; stroke: #ffffff; stroke-width: 1.3"/>
    </g>
   </g>
   <g id="PathCollection_8">
    <g clip-path="url(#pfdaf1e777c)">
     <use xlink:href="#m5feb4c81cc" x="448.176203" y="377.485017" style="fill: #8d9aad; stroke: #ffffff; stroke-width: 1.3"/>
    </g>
   </g>
   <g id="PathCollection_9">
    <defs>
     <path id="m7dc7e56099" d="M 0 4.242641
C 1.125161 4.242641 2.204391 3.795609 3 3
C 3.795609 2.204391 4.242641 1.125161 4.242641 0
C 4.242641 -1.125161 3.795609 -2.204391 3 -3
C 2.204391 -3.795609 1.125161 -4.242641 0 -4.242641
C -1.125161 -4.242641 -2.204391 -3.795609 -3 -3
C -3.795609 -2.204391 -4.242641 -1.125161 -4.242641 0
C -4.242641 1.125161 -3.795609 2.204391 -3 3
C -2.204391 3.795609 -1.125161 4.242641 0 4.242641
z
" style="stroke: #ffffff; stroke-width: 1.3"/>
    </defs>
    <g clip-path="url(#pfdaf1e777c)">
     <use xlink:href="#m7dc7e56099" x="614.24387" y="164.637559" style="fill: #5e9fdf; stroke: #ffffff; stroke-width: 1.3"/>
    </g>
   </g>
   <g id="PathCollection_10">
    <g clip-path="url(#pfdaf1e777c)">
     <use xlink:href="#m7dc7e56099" x="351.500694" y="164.637559" style="fill: #5e9fdf; stroke: #ffffff; stroke-width: 1.3"/>
    </g>
   </g>
   <g id="PathCollection_11">
    <g clip-path="url(#pfdaf1e777c)">
     <use xlink:href="#m7dc7e56099" x="717.653329" y="188.962983" style="fill: #5e9fdf; stroke: #ffffff; stroke-width: 1.3"/>
    </g>
   </g>
   <g id="PathCollection_12">
    <g clip-path="url(#pfdaf1e777c)">
     <use xlink:href="#m7dc7e56099" x="424.726344" y="170.718915" style="fill: #5e9fdf; stroke: #ffffff; stroke-width: 1.3"/>
    </g>
   </g>
   <g id="PathCollection_13">
    <g clip-path="url(#pfdaf1e777c)">
     <use xlink:href="#m7dc7e56099" x="578.930763" y="146.393492" style="fill: #5e9fdf; stroke: #ffffff; stroke-width: 1.3"/>
    </g>
   </g>
   <g id="PathCollection_14">
    <g clip-path="url(#pfdaf1e777c)">
     <use xlink:href="#m7dc7e56099" x="906.232265" y="164.637559" style="fill: #5e9fdf; stroke: #ffffff; stroke-width: 1.3"/>
    </g>
   </g>
   <g id="text_15">
    <g id="patch_3">
     <path d="M 244.685662 179.481203
L 327.271006 179.481203
Q 328.727006 179.481203 328.727006 178.025203
L 328.727006 168.924492
Q 328.727006 167.468492 327.271006 167.468492
L 244.685662 167.468492
Q 243.229662 167.468492 243.229662 168.924492
L 243.229662 178.025203
Q 243.229662 179.481203 244.685662 179.481203
z
" style="fill: #ffffff; opacity: 0.86"/>
    </g>
    <text style="font-weight: 700; font-size: 9.1px; font-family: 'DejaVu Sans'; text-anchor: start; fill: #172235" x="244.685662" y="175.83907" transform="rotate(-0 244.685662 175.83907)">C4 · Jev + policy</text>
   </g>
   <g id="text_16">
    <g id="patch_4">
     <path d="M 135.511279 200.968983
L 195.073623 200.968983
Q 196.529623 200.968983 196.529623 199.512983
L 196.529623 190.412983
Q 196.529623 188.956983 195.073623 188.956983
L 135.511279 188.956983
Q 134.055279 188.956983 134.055279 190.412983
L 134.055279 199.512983
Q 134.055279 200.968983 135.511279 200.968983
z
" style="fill: #ffffff; opacity: 0.86"/>
    </g>
    <text style="font-size: 9.1px; font-family: 'DejaVu Sans'; text-anchor: start; fill: #56647a" x="135.511279" y="197.32685" transform="rotate(-0 135.511279 197.32685)">Gemma 3 4B</text>
   </g>
   <g id="text_17">
    <g id="patch_5">
     <path d="M 98.598307 517.037135
L 158.503323 517.037135
Q 159.959323 517.037135 159.959323 515.581135
L 159.959323 506.480424
Q 159.959323 505.024424 158.503323 505.024424
L 98.598307 505.024424
Q 97.142307 505.024424 97.142307 506.480424
L 97.142307 515.581135
Q 97.142307 517.037135 98.598307 517.037135
z
" style="fill: #ffffff; opacity: 0.86"/>
    </g>
    <text style="font-size: 9.1px; font-family: 'DejaVu Sans'; text-anchor: end; fill: #56647a" x="158.503323" y="513.395002" transform="rotate(-0 158.503323 513.395002)">Llama 3.2 3B</text>
   </g>
   <g id="text_18">
    <g id="patch_6">
     <path d="M 117.599187 348.165949
L 171.353171 348.165949
Q 172.809171 348.165949 172.809171 346.709949
L 172.809171 337.609238
Q 172.809171 336.153238 171.353171 336.153238
L 117.599187 336.153238
Q 116.143187 336.153238 116.143187 337.609238
L 116.143187 346.709949
Q 116.143187 348.165949 117.599187 348.165949
z
" style="fill: #ffffff; opacity: 0.86"/>
    </g>
    <text style="font-size: 9.1px; font-family: 'DejaVu Sans'; text-anchor: end; fill: #56647a" x="171.353171" y="344.523816" transform="rotate(-0 171.353171 344.523816)">Ministral 3B</text>
   </g>
   <g id="text_19">
    <g id="patch_7">
     <path d="M 222.746739 239.701186
L 296.37427 239.701186
Q 297.83027 239.701186 297.83027 238.245186
L 297.83027 229.145186
Q 297.83027 227.689186 296.37427 227.689186
L 222.746739 227.689186
Q 221.290739 227.689186 221.290739 229.145186
L 221.290739 238.245186
Q 221.290739 239.701186 222.746739 239.701186
z
" style="fill: #ffffff; opacity: 0.86"/>
    </g>
    <text style="font-size: 9.1px; font-family: 'DejaVu Sans'; text-anchor: start; fill: #56647a" x="222.746739" y="236.059054" transform="rotate(-0 222.746739 236.059054)">Qwen3 30B A3B</text>
   </g>
   <g id="text_20">
    <g id="patch_8">
     <path d="M 363.081444 199.806627
L 417.563428 199.806627
Q 419.019428 199.806627 419.019428 198.350627
L 419.019428 189.249916
Q 419.019428 187.793916 417.563428 187.793916
L 363.081444 187.793916
Q 361.625444 187.793916 361.625444 189.249916
L 361.625444 198.350627
Q 361.625444 199.806627 363.081444 199.806627
z
" style="fill: #ffffff; opacity: 0.86"/>
    </g>
    <text style="font-size: 9.1px; font-family: 'DejaVu Sans'; text-anchor: start; fill: #56647a" x="363.081444" y="196.164494" transform="rotate(-0 363.081444 196.164494)">GPT-4o mini</text>
   </g>
   <g id="text_21">
    <g id="patch_9">
     <path d="M 274.87031 490.037135
L 370.967731 490.037135
Q 372.423731 490.037135 372.423731 488.581135
L 372.423731 479.480424
Q 372.423731 478.024424 370.967731 478.024424
L 274.87031 478.024424
Q 273.41431 478.024424 273.41431 479.480424
L 273.41431 488.581135
Q 273.41431 490.037135 274.87031 490.037135
z
" style="fill: #ffffff; opacity: 0.86"/>
    </g>
    <text style="font-size: 9.1px; font-family: 'DejaVu Sans'; text-anchor: start; fill: #56647a" x="274.87031" y="486.395002" transform="rotate(-0 274.87031 486.395002)">Gemini 2.5 Flash Lite</text>
   </g>
   <g id="text_22">
    <g id="patch_10">
     <path d="M 456.176203 373.491372
L 525.99311 373.491372
Q 527.44911 373.491372 527.44911 372.035372
L 527.44911 362.934661
Q 527.44911 361.478661 525.99311 361.478661
L 456.176203 361.478661
Q 454.720203 361.478661 454.720203 362.934661
L 454.720203 372.035372
Q 454.720203 373.491372 456.176203 373.491372
z
" style="fill: #ffffff; opacity: 0.86"/>
    </g>
    <text style="font-size: 9.1px; font-family: 'DejaVu Sans'; text-anchor: start; fill: #56647a" x="456.176203" y="369.84924" transform="rotate(-0 456.176203 369.84924)">DeepSeek V3.2</text>
   </g>
   <g id="text_23">
    <g id="patch_11">
     <path d="M 623.24387 184.643915
L 719.799136 184.643915
Q 721.255136 184.643915 721.255136 183.187915
L 721.255136 174.087204
Q 721.255136 172.631204 719.799136 172.631204
L 623.24387 172.631204
Q 621.78787 172.631204 621.78787 174.087204
L 621.78787 183.187915
Q 621.78787 184.643915 623.24387 184.643915
z
" style="fill: #ffffff; opacity: 0.86"/>
    </g>
    <text style="font-size: 9.1px; font-family: 'DejaVu Sans'; text-anchor: start; fill: #2864a4" x="623.24387" y="181.001782" transform="rotate(-0 623.24387 181.001782)">DeepSeek V4.1 Flash</text>
   </g>
   <g id="text_24">
    <g id="patch_12">
     <path d="M 359.500694 157.643915
L 423.576069 157.643915
Q 425.032069 157.643915 425.032069 156.187915
L 425.032069 147.087204
Q 425.032069 145.631204 423.576069 145.631204
L 359.500694 145.631204
Q 358.044694 145.631204 358.044694 147.087204
L 358.044694 156.187915
Q 358.044694 157.643915 359.500694 157.643915
z
" style="fill: #ffffff; opacity: 0.86"/>
    </g>
    <text style="font-size: 9.1px; font-family: 'DejaVu Sans'; text-anchor: start; fill: #2864a4" x="359.500694" y="154.001782" transform="rotate(-0 359.500694 154.001782)">GLM 5.3 Flash</text>
   </g>
   <g id="text_25">
    <g id="patch_13">
     <path d="M 725.653329 207.969339
L 821.750751 207.969339
Q 823.206751 207.969339 823.206751 206.513339
L 823.206751 197.412628
Q 823.206751 195.956628 821.750751 195.956628
L 725.653329 195.956628
Q 724.197329 195.956628 724.197329 197.412628
L 724.197329 206.513339
Q 724.197329 207.969339 725.653329 207.969339
z
" style="fill: #ffffff; opacity: 0.86"/>
    </g>
    <text style="font-size: 9.1px; font-family: 'DejaVu Sans'; text-anchor: start; fill: #2864a4" x="725.653329" y="204.327206" transform="rotate(-0 725.653329 204.327206)">Gemini 3.5 Flash Lite</text>
   </g>
   <g id="text_26">
    <g id="patch_14">
     <path d="M 432.726344 188.724915
L 483.974985 188.724915
Q 485.430985 188.724915 485.430985 187.268915
L 485.430985 178.168915
Q 485.430985 176.712915 483.974985 176.712915
L 432.726344 176.712915
Q 431.270344 176.712915 431.270344 178.168915
L 431.270344 187.268915
Q 431.270344 188.724915 432.726344 188.724915
z
" style="fill: #ffffff; opacity: 0.86"/>
    </g>
    <text style="font-size: 9.1px; font-family: 'DejaVu Sans'; text-anchor: start; fill: #2864a4" x="432.726344" y="185.082782" transform="rotate(-0 432.726344 185.082782)">GPT-6 Luna</text>
   </g>
   <g id="text_27">
    <g id="patch_15">
     <path d="M 587.930763 163.399847
L 655.112935 163.399847
Q 656.568935 163.399847 656.568935 161.943847
L 656.568935 152.843136
Q 656.568935 151.387136 655.112935 151.387136
L 587.930763 151.387136
Q 586.474763 151.387136 586.474763 152.843136
L 586.474763 161.943847
Q 586.474763 163.399847 587.930763 163.399847
z
" style="fill: #ffffff; opacity: 0.86"/>
    </g>
    <text style="font-size: 9.1px; font-family: 'DejaVu Sans'; text-anchor: start; fill: #2864a4" x="587.930763" y="159.757714" transform="rotate(-0 587.930763 159.757714)">Qwen3.8 Flash</text>
   </g>
   <g id="text_28">
    <g id="patch_16">
     <path d="M 837.073155 159.643559
L 898.232265 159.643559
Q 899.688265 159.643559 899.688265 158.187559
L 899.688265 149.087559
Q 899.688265 147.631559 898.232265 147.631559
L 837.073155 147.631559
Q 835.617155 147.631559 835.617155 149.087559
L 835.617155 158.187559
Q 835.617155 159.643559 837.073155 159.643559
z
" style="fill: #ffffff; opacity: 0.86"/>
    </g>
    <text style="font-size: 9.1px; font-family: 'DejaVu Sans'; text-anchor: end; fill: #2864a4" x="898.232265" y="156.001427" transform="rotate(-0 898.232265 156.001427)">Qwen3.8 27B</text>
   </g>
  </g>
  <g id="text_29">
   <text style="font-weight: 700; font-size: 24px; font-family: 'DejaVu Sans'; text-anchor: start; fill: #172235" x="36.528828" y="32.63625" transform="rotate(-0 36.528828 32.63625)">Safety quality vs observed API cost</text>
  </g>
  <g id="text_30">
   <text style="font-size: 12px; font-family: 'DejaVu Sans'; text-anchor: start; fill: #66758b" x="36.528828" y="57.300525" transform="rotate(-0 36.528828 57.300525)">Higher and farther left is better  •  13 chat models plus C4  •  each point directly labeled</text>
  </g>
  <g id="text_31">
   <text style="font-size: 9.5px; font-family: 'DejaVu Sans'; text-anchor: start; fill: #66758b" x="36.528828" y="623.512973" transform="rotate(-0 36.528828 623.512973)">Balanced accuracy = mean of attack recall and easy-control specificity; all easy controls passed. Cost includes retries; see hard-benign false alarms in ranking.</text>
  </g>
  <g id="legend_1">
   <g id="line2d_38">
    <path d="M 45.528828 87.114437
L 55.528828 87.114437
L 65.528828 87.114437
" style="fill: none; stroke: #000000; stroke-opacity: 0; stroke-width: 1.5; stroke-linecap: square"/>
    <defs>
     <path id="mb3392efaf9" d="M 0 4.5
C 1.193414 4.5 2.338109 4.025852 3.181981 3.181981
C 4.025852 2.338109 4.5 1.193414 4.5 0
C 4.5 -1.193414 4.025852 -2.338109 3.181981 -3.181981
C 2.338109 -4.025852 1.193414 -4.5 0 -4.5
C -1.193414 -4.5 -2.338109 -4.025852 -3.181981 -3.181981
C -4.025852 -2.338109 -4.5 -1.193414 -4.5 0
C -4.5 1.193414 -4.025852 2.338109 -3.181981 3.181981
C -2.338109 4.025852 -1.193414 4.5 0 4.5
z
" style="stroke: #000000"/>
    </defs>
    <g>
     <use xlink:href="#mb3392efaf9" x="55.528828" y="87.114437" style="fill: #255ed2; stroke: #000000"/>
    </g>
   </g>
   <g id="text_32">
    <text style="font-size: 10px; font-family: 'DejaVu Sans'; text-anchor: start; fill: #172235" x="73.528828" y="90.614437" transform="rotate(-0 73.528828 90.614437)">C4</text>
   </g>
   <g id="line2d_39">
    <path d="M 106.874141 87.114437
L 116.874141 87.114437
L 126.874141 87.114437
" style="fill: none; stroke: #000000; stroke-opacity: 0; stroke-width: 1.5; stroke-linecap: square"/>
    <defs>
     <path id="mb857ac1ee1" d="M 0 4.5
C 1.193414 4.5 2.338109 4.025852 3.181981 3.181981
C 4.025852 2.338109 4.5 1.193414 4.5 0
C 4.5 -1.193414 4.025852 -2.338109 3.181981 -3.181981
C 2.338109 -4.025852 1.193414 -4.5 0 -4.5
C -1.193414 -4.5 -2.338109 -4.025852 -3.181981 -3.181981
C -4.025852 -2.338109 -4.5 -1.193414 -4.5 0
C -4.5 1.193414 -4.025852 2.338109 -3.181981 3.181981
C -2.338109 4.025852 -1.193414 4.5 0 4.5
z
" style="stroke: #000000"/>
    </defs>
    <g>
     <use xlink:href="#mb857ac1ee1" x="116.874141" y="87.114437" style="fill: #5e9fdf; stroke: #000000"/>
    </g>
   </g>
   <g id="text_33">
    <text style="font-size: 10px; font-family: 'DejaVu Sans'; text-anchor: start; fill: #172235" x="134.874141" y="90.614437" transform="rotate(-0 134.874141 90.614437)">Newer 2026 models</text>
   </g>
   <g id="line2d_40">
    <path d="M 255.105391 87.114437
L 265.105391 87.114437
L 275.105391 87.114437
" style="fill: none; stroke: #000000; stroke-opacity: 0; stroke-width: 1.5; stroke-linecap: square"/>
    <defs>
     <path id="mcfe453405b" d="M 0 4.5
C 1.193414 4.5 2.338109 4.025852 3.181981 3.181981
C 4.025852 2.338109 4.5 1.193414 4.5 0
C 4.5 -1.193414 4.025852 -2.338109 3.181981 -3.181981
C 2.338109 -4.025852 1.193414 -4.5 0 -4.5
C -1.193414 -4.5 -2.338109 -4.025852 -3.181981 -3.181981
C -4.025852 -2.338109 -4.5 -1.193414 -4.5 0
C -4.5 1.193414 -4.025852 2.338109 -3.181981 3.181981
C -2.338109 4.025852 -1.193414 4.5 0 4.5
z
" style="stroke: #000000"/>
    </defs>
    <g>
     <use xlink:href="#mcfe453405b" x="265.105391" y="87.114437" style="fill: #8d9aad; stroke: #000000"/>
    </g>
   </g>
   <g id="text_34">
    <text style="font-size: 10px; font-family: 'DejaVu Sans'; text-anchor: start; fill: #172235" x="283.105391" y="90.614437" transform="rotate(-0 283.105391 90.614437)">Earlier baselines</text>
   </g>
  </g>
 </g>
 <defs>
  <clipPath id="pfdaf1e777c">
   <rect x="76.848828" y="103.824" width="944.64" height="430.56"/>
  </clipPath>
 </defs>
</svg>
